<mxfile host="app.diagrams.net" modified="2023-10-31T10:33:09.873Z" agent="Mozilla/5.0 (Macintosh; Intel Mac OS X 10_15_7) AppleWebKit/605.1.15 (KHTML, like Gecko) Version/15.3 Safari/605.1.15" etag="dKzhHS2BfrfN5qaF3f_Q" version="22.0.8" type="github">
  <diagram id="R2lEEEUBdFMjLlhIrx00" name="Page-1">
    <mxGraphModel dx="2924" dy="1162" grid="1" gridSize="10" guides="1" tooltips="1" connect="1" arrows="1" fold="1" page="1" pageScale="1" pageWidth="850" pageHeight="1100" math="0" shadow="0" extFonts="Permanent Marker^https://fonts.googleapis.com/css?family=Permanent+Marker">
      <root>
        <mxCell id="0" />
        <mxCell id="1" parent="0" />
        <mxCell id="ipcIA9Gu2kkzTRT3-YgF-11" style="edgeStyle=orthogonalEdgeStyle;rounded=0;orthogonalLoop=1;jettySize=auto;html=1;endArrow=none;endFill=0;" parent="1" source="ipcIA9Gu2kkzTRT3-YgF-2" target="ipcIA9Gu2kkzTRT3-YgF-8" edge="1">
          <mxGeometry relative="1" as="geometry" />
        </mxCell>
        <mxCell id="ipcIA9Gu2kkzTRT3-YgF-12" style="edgeStyle=orthogonalEdgeStyle;rounded=0;orthogonalLoop=1;jettySize=auto;html=1;endArrow=none;endFill=0;" parent="1" source="ipcIA9Gu2kkzTRT3-YgF-2" target="ipcIA9Gu2kkzTRT3-YgF-6" edge="1">
          <mxGeometry relative="1" as="geometry" />
        </mxCell>
        <mxCell id="ipcIA9Gu2kkzTRT3-YgF-13" style="edgeStyle=orthogonalEdgeStyle;rounded=0;orthogonalLoop=1;jettySize=auto;html=1;endArrow=none;endFill=0;" parent="1" source="ipcIA9Gu2kkzTRT3-YgF-2" target="ipcIA9Gu2kkzTRT3-YgF-7" edge="1">
          <mxGeometry relative="1" as="geometry" />
        </mxCell>
        <mxCell id="ipcIA9Gu2kkzTRT3-YgF-14" value="" style="edgeStyle=orthogonalEdgeStyle;rounded=0;orthogonalLoop=1;jettySize=auto;html=1;endArrow=none;endFill=0;" parent="1" source="ipcIA9Gu2kkzTRT3-YgF-2" target="ipcIA9Gu2kkzTRT3-YgF-10" edge="1">
          <mxGeometry relative="1" as="geometry" />
        </mxCell>
        <mxCell id="ipcIA9Gu2kkzTRT3-YgF-16" style="edgeStyle=orthogonalEdgeStyle;rounded=0;orthogonalLoop=1;jettySize=auto;html=1;entryX=0.5;entryY=0;entryDx=0;entryDy=0;endArrow=none;endFill=0;" parent="1" source="ipcIA9Gu2kkzTRT3-YgF-2" target="ipcIA9Gu2kkzTRT3-YgF-9" edge="1">
          <mxGeometry relative="1" as="geometry" />
        </mxCell>
        <mxCell id="jlvCZ8Wma5xloxZjLSef-2" style="edgeStyle=orthogonalEdgeStyle;rounded=0;orthogonalLoop=1;jettySize=auto;html=1;endArrow=none;endFill=0;" edge="1" parent="1" source="ipcIA9Gu2kkzTRT3-YgF-2" target="jlvCZ8Wma5xloxZjLSef-1">
          <mxGeometry relative="1" as="geometry" />
        </mxCell>
        <mxCell id="ipcIA9Gu2kkzTRT3-YgF-2" value="&lt;font style=&quot;font-size: 30px;&quot;&gt;Vessels&lt;/font&gt;" style="rounded=0;whiteSpace=wrap;html=1;" parent="1" vertex="1">
          <mxGeometry x="-480" y="310" width="200" height="80" as="geometry" />
        </mxCell>
        <mxCell id="ipcIA9Gu2kkzTRT3-YgF-19" style="edgeStyle=orthogonalEdgeStyle;rounded=0;orthogonalLoop=1;jettySize=auto;html=1;endArrow=none;endFill=0;" parent="1" source="ipcIA9Gu2kkzTRT3-YgF-3" target="ipcIA9Gu2kkzTRT3-YgF-18" edge="1">
          <mxGeometry relative="1" as="geometry" />
        </mxCell>
        <mxCell id="ipcIA9Gu2kkzTRT3-YgF-20" style="edgeStyle=orthogonalEdgeStyle;rounded=0;orthogonalLoop=1;jettySize=auto;html=1;endArrow=none;endFill=0;" parent="1" source="ipcIA9Gu2kkzTRT3-YgF-3" target="ipcIA9Gu2kkzTRT3-YgF-17" edge="1">
          <mxGeometry relative="1" as="geometry" />
        </mxCell>
        <mxCell id="ipcIA9Gu2kkzTRT3-YgF-3" value="&lt;font style=&quot;font-size: 30px;&quot;&gt;City&lt;/font&gt;" style="rounded=0;whiteSpace=wrap;html=1;" parent="1" vertex="1">
          <mxGeometry x="475" y="140" width="200" height="80" as="geometry" />
        </mxCell>
        <mxCell id="ipcIA9Gu2kkzTRT3-YgF-23" style="edgeStyle=orthogonalEdgeStyle;rounded=0;orthogonalLoop=1;jettySize=auto;html=1;endArrow=none;endFill=0;" parent="1" source="ipcIA9Gu2kkzTRT3-YgF-4" target="ipcIA9Gu2kkzTRT3-YgF-22" edge="1">
          <mxGeometry relative="1" as="geometry" />
        </mxCell>
        <mxCell id="ipcIA9Gu2kkzTRT3-YgF-24" style="edgeStyle=orthogonalEdgeStyle;rounded=0;orthogonalLoop=1;jettySize=auto;html=1;endArrow=none;endFill=0;" parent="1" source="ipcIA9Gu2kkzTRT3-YgF-4" target="ipcIA9Gu2kkzTRT3-YgF-21" edge="1">
          <mxGeometry relative="1" as="geometry" />
        </mxCell>
        <mxCell id="ipcIA9Gu2kkzTRT3-YgF-4" value="&lt;font style=&quot;font-size: 30px;&quot;&gt;Dates&lt;/font&gt;" style="rounded=0;whiteSpace=wrap;html=1;" parent="1" vertex="1">
          <mxGeometry x="475" y="530" width="200" height="80" as="geometry" />
        </mxCell>
        <mxCell id="ipcIA9Gu2kkzTRT3-YgF-6" value="&lt;u&gt;&lt;font style=&quot;font-size: 17px;&quot;&gt;Id&lt;/font&gt;&lt;/u&gt;" style="ellipse;whiteSpace=wrap;html=1;" parent="1" vertex="1">
          <mxGeometry x="-530" y="190" width="120" height="80" as="geometry" />
        </mxCell>
        <mxCell id="ipcIA9Gu2kkzTRT3-YgF-7" value="Vessel Name" style="ellipse;whiteSpace=wrap;html=1;" parent="1" vertex="1">
          <mxGeometry x="-380" y="190" width="120" height="80" as="geometry" />
        </mxCell>
        <mxCell id="ipcIA9Gu2kkzTRT3-YgF-8" value="UsedCapacity" style="ellipse;whiteSpace=wrap;html=1;" parent="1" vertex="1">
          <mxGeometry x="-690" y="380" width="120" height="80" as="geometry" />
        </mxCell>
        <mxCell id="ipcIA9Gu2kkzTRT3-YgF-9" value="Max Capacity" style="ellipse;whiteSpace=wrap;html=1;" parent="1" vertex="1">
          <mxGeometry x="-530" y="430" width="120" height="80" as="geometry" />
        </mxCell>
        <mxCell id="ipcIA9Gu2kkzTRT3-YgF-10" value="Available Capacity" style="ellipse;whiteSpace=wrap;html=1;dashed=1;" parent="1" vertex="1">
          <mxGeometry x="-380" y="430" width="120" height="80" as="geometry" />
        </mxCell>
        <mxCell id="ipcIA9Gu2kkzTRT3-YgF-17" value="&lt;font style=&quot;font-size: 17px;&quot;&gt;&lt;u&gt;Id&lt;/u&gt;&lt;/font&gt;" style="ellipse;whiteSpace=wrap;html=1;" parent="1" vertex="1">
          <mxGeometry x="450" y="20" width="120" height="80" as="geometry" />
        </mxCell>
        <mxCell id="ipcIA9Gu2kkzTRT3-YgF-18" value="CityVessel" style="ellipse;whiteSpace=wrap;html=1;" parent="1" vertex="1">
          <mxGeometry x="600" y="20" width="120" height="80" as="geometry" />
        </mxCell>
        <mxCell id="ipcIA9Gu2kkzTRT3-YgF-21" value="&lt;font style=&quot;font-size: 17px;&quot;&gt;&lt;u&gt;Id&lt;/u&gt;&lt;/font&gt;" style="ellipse;whiteSpace=wrap;html=1;" parent="1" vertex="1">
          <mxGeometry x="440" y="660" width="120" height="80" as="geometry" />
        </mxCell>
        <mxCell id="ipcIA9Gu2kkzTRT3-YgF-22" value="DateVessel" style="ellipse;whiteSpace=wrap;html=1;" parent="1" vertex="1">
          <mxGeometry x="590" y="660" width="120" height="80" as="geometry" />
        </mxCell>
        <mxCell id="ipcIA9Gu2kkzTRT3-YgF-32" value="&lt;span style=&quot;font-size: 31px;&quot;&gt;&lt;br&gt;Cities &amp;amp; Dates&lt;br&gt;Containing&lt;br&gt;Vid&amp;nbsp;&lt;br&gt;&lt;/span&gt;" style="rhombus;whiteSpace=wrap;html=1;" parent="1" vertex="1">
          <mxGeometry x="-110" y="570" width="360" height="200" as="geometry" />
        </mxCell>
        <mxCell id="ipcIA9Gu2kkzTRT3-YgF-40" value="&lt;span style=&quot;font-size: 31px;&quot;&gt;&lt;br&gt;Vessels &amp;amp; Dates&lt;br&gt;Containing&lt;br&gt;Cid&amp;nbsp;&lt;br&gt;&lt;/span&gt;" style="rhombus;whiteSpace=wrap;html=1;" parent="1" vertex="1">
          <mxGeometry x="-110" y="330" width="360" height="200" as="geometry" />
        </mxCell>
        <mxCell id="ipcIA9Gu2kkzTRT3-YgF-41" value="&lt;span style=&quot;font-size: 31px;&quot;&gt;&lt;br&gt;Vessels &amp;amp; Cities&lt;br&gt;Containing&lt;br&gt;Did&amp;nbsp;&lt;br&gt;&lt;/span&gt;" style="rhombus;whiteSpace=wrap;html=1;" parent="1" vertex="1">
          <mxGeometry x="-110" y="90" width="360" height="200" as="geometry" />
        </mxCell>
        <mxCell id="jlvCZ8Wma5xloxZjLSef-1" value="CityDate with Vid" style="ellipse;whiteSpace=wrap;html=1;" vertex="1" parent="1">
          <mxGeometry x="-690" y="270" width="120" height="80" as="geometry" />
        </mxCell>
        <mxCell id="jlvCZ8Wma5xloxZjLSef-10" style="edgeStyle=orthogonalEdgeStyle;rounded=0;orthogonalLoop=1;jettySize=auto;html=1;endArrow=none;endFill=0;" edge="1" parent="1" source="jlvCZ8Wma5xloxZjLSef-16" target="jlvCZ8Wma5xloxZjLSef-19">
          <mxGeometry relative="1" as="geometry" />
        </mxCell>
        <mxCell id="jlvCZ8Wma5xloxZjLSef-11" style="edgeStyle=orthogonalEdgeStyle;rounded=0;orthogonalLoop=1;jettySize=auto;html=1;endArrow=none;endFill=0;" edge="1" parent="1" source="jlvCZ8Wma5xloxZjLSef-16" target="jlvCZ8Wma5xloxZjLSef-17">
          <mxGeometry relative="1" as="geometry" />
        </mxCell>
        <mxCell id="jlvCZ8Wma5xloxZjLSef-12" style="edgeStyle=orthogonalEdgeStyle;rounded=0;orthogonalLoop=1;jettySize=auto;html=1;endArrow=none;endFill=0;" edge="1" parent="1" source="jlvCZ8Wma5xloxZjLSef-16" target="jlvCZ8Wma5xloxZjLSef-18">
          <mxGeometry relative="1" as="geometry" />
        </mxCell>
        <mxCell id="jlvCZ8Wma5xloxZjLSef-13" value="" style="edgeStyle=orthogonalEdgeStyle;rounded=0;orthogonalLoop=1;jettySize=auto;html=1;endArrow=none;endFill=0;" edge="1" parent="1" source="jlvCZ8Wma5xloxZjLSef-16">
          <mxGeometry relative="1" as="geometry">
            <mxPoint x="-320" y="790" as="targetPoint" />
          </mxGeometry>
        </mxCell>
        <mxCell id="jlvCZ8Wma5xloxZjLSef-14" style="edgeStyle=orthogonalEdgeStyle;rounded=0;orthogonalLoop=1;jettySize=auto;html=1;entryX=0.5;entryY=0;entryDx=0;entryDy=0;endArrow=none;endFill=0;" edge="1" parent="1" source="jlvCZ8Wma5xloxZjLSef-16" target="jlvCZ8Wma5xloxZjLSef-20">
          <mxGeometry relative="1" as="geometry" />
        </mxCell>
        <mxCell id="jlvCZ8Wma5xloxZjLSef-15" style="edgeStyle=orthogonalEdgeStyle;rounded=0;orthogonalLoop=1;jettySize=auto;html=1;endArrow=none;endFill=0;" edge="1" parent="1" source="jlvCZ8Wma5xloxZjLSef-16" target="jlvCZ8Wma5xloxZjLSef-22">
          <mxGeometry relative="1" as="geometry" />
        </mxCell>
        <mxCell id="jlvCZ8Wma5xloxZjLSef-16" value="&lt;font style=&quot;font-size: 30px;&quot;&gt;Route&lt;/font&gt;" style="rounded=0;whiteSpace=wrap;html=1;" vertex="1" parent="1">
          <mxGeometry x="-480" y="670" width="200" height="80" as="geometry" />
        </mxCell>
        <mxCell id="jlvCZ8Wma5xloxZjLSef-17" value="endDid" style="ellipse;whiteSpace=wrap;html=1;" vertex="1" parent="1">
          <mxGeometry x="-530" y="550" width="120" height="80" as="geometry" />
        </mxCell>
        <mxCell id="jlvCZ8Wma5xloxZjLSef-18" value="startDid" style="ellipse;whiteSpace=wrap;html=1;" vertex="1" parent="1">
          <mxGeometry x="-380" y="550" width="120" height="80" as="geometry" />
        </mxCell>
        <mxCell id="jlvCZ8Wma5xloxZjLSef-19" value="endCid" style="ellipse;whiteSpace=wrap;html=1;" vertex="1" parent="1">
          <mxGeometry x="-690" y="740" width="120" height="80" as="geometry" />
        </mxCell>
        <mxCell id="jlvCZ8Wma5xloxZjLSef-20" value="rVid" style="ellipse;whiteSpace=wrap;html=1;" vertex="1" parent="1">
          <mxGeometry x="-530" y="790" width="120" height="80" as="geometry" />
        </mxCell>
        <mxCell id="jlvCZ8Wma5xloxZjLSef-22" value="startCid" style="ellipse;whiteSpace=wrap;html=1;" vertex="1" parent="1">
          <mxGeometry x="-690" y="630" width="120" height="80" as="geometry" />
        </mxCell>
        <mxCell id="jlvCZ8Wma5xloxZjLSef-23" value="&lt;font size=&quot;1&quot;&gt;&lt;u style=&quot;font-size: 17px;&quot;&gt;Id&lt;/u&gt;&lt;/font&gt;" style="ellipse;whiteSpace=wrap;html=1;" vertex="1" parent="1">
          <mxGeometry x="-380" y="790" width="120" height="80" as="geometry" />
        </mxCell>
        <mxCell id="jlvCZ8Wma5xloxZjLSef-24" style="edgeStyle=orthogonalEdgeStyle;rounded=0;orthogonalLoop=1;jettySize=auto;html=1;endArrow=none;endFill=0;exitX=0.5;exitY=0;exitDx=0;exitDy=0;" edge="1" parent="1" target="jlvCZ8Wma5xloxZjLSef-25" source="ipcIA9Gu2kkzTRT3-YgF-4">
          <mxGeometry relative="1" as="geometry">
            <mxPoint x="575" y="400" as="sourcePoint" />
          </mxGeometry>
        </mxCell>
        <mxCell id="jlvCZ8Wma5xloxZjLSef-25" value="&lt;p style=&quot;margin: 0px; font-stretch: normal; font-size: 13px; line-height: normal; font-family: &amp;quot;Helvetica Neue&amp;quot;;&quot;&gt;&lt;b&gt;cityVesselWithDidIndex&lt;/b&gt;&lt;/p&gt;" style="ellipse;whiteSpace=wrap;html=1;" vertex="1" parent="1">
          <mxGeometry x="500" y="390" width="210" height="80" as="geometry" />
        </mxCell>
        <mxCell id="jlvCZ8Wma5xloxZjLSef-26" style="edgeStyle=orthogonalEdgeStyle;rounded=0;orthogonalLoop=1;jettySize=auto;html=1;endArrow=none;endFill=0;" edge="1" parent="1" target="jlvCZ8Wma5xloxZjLSef-27" source="ipcIA9Gu2kkzTRT3-YgF-3">
          <mxGeometry relative="1" as="geometry">
            <mxPoint x="590" y="390" as="sourcePoint" />
          </mxGeometry>
        </mxCell>
        <mxCell id="jlvCZ8Wma5xloxZjLSef-27" value="&lt;p style=&quot;margin: 0px; font-stretch: normal; font-size: 13px; line-height: normal; font-family: &amp;quot;Helvetica Neue&amp;quot;;&quot;&gt;&lt;b&gt;vesselDateWithCidIndex&lt;/b&gt;&lt;/p&gt;" style="ellipse;whiteSpace=wrap;html=1;" vertex="1" parent="1">
          <mxGeometry x="550" y="270" width="185" height="80" as="geometry" />
        </mxCell>
      </root>
    </mxGraphModel>
  </diagram>
</mxfile>
